<svg width="30" height="20" viewBox="0 0 30 20" fill="none" xmlns="http://www.w3.org/2000/svg">
<g clip-path="url(#clip0_38_3055)">
<path d="M0 0H30V20H0V0Z" fill="#ED2024"/>
<path d="M10.8333 4.06663V9.39997L13.1999 10.2333L11.5333 11.8666L12.3333 12.8666L14.0999 11.0333L14.4999 11.8L13.4999 13.4333L14.6999 15.3L14.0999 16.1666L15.0333 17.3666L15.9333 16.1333L15.4333 15.2666L16.4333 13.3333L15.5333 11.8L15.9333 11.0333L17.6666 12.8666L18.4999 11.9L16.7666 10.2L19.1666 9.3333V4.06663L17.4333 4.69997L17.3999 5.96663L16.2999 6.06663V5.19997L16.8666 4.4333L18.7333 3.69997L17.9666 3.56663L18.4333 3.16663L18.7333 3.29997L18.4666 2.8333L17.9999 2.99997L17.6666 2.6333L15.8333 2.99997L16.2999 3.36663L15.0333 4.99997L13.7666 3.39997L14.1999 3.0333L12.5333 2.6333L12.0666 2.99997L11.5666 2.86663L11.2999 3.3333L11.5999 3.1333L12.1333 3.49997L11.3666 3.66663L13.1999 4.3333L13.7333 5.09997V6.06663L12.6333 5.96663V4.76663L10.8333 4.06663Z" fill="#212121"/>
<path d="M8.7334 8.33328H10.8667V9.16661H8.7334V8.33328ZM8.7334 6.96661H10.8667V7.86661H8.7334V6.96661ZM8.7334 5.56661H10.8667V6.43328H8.7334V5.56661ZM8.7334 4.23328H10.8667V5.06661H8.7334V4.23328Z" fill="#212121"/>
<path d="M19.1333 8.33328H21.2666V9.16661H19.1333V8.33328ZM19.1333 6.96661H21.2666V7.86661H19.1333V6.96661ZM19.1333 5.56661H21.2666V6.43328H19.1333V5.56661ZM19.1333 4.23328H21.2666V5.06661H19.1333V4.23328Z" fill="#212121"/>
<path d="M17.8 12.0333H19.9333V12.6667H17.8V12.0333ZM10.0667 12.0333H12.2V12.6667H10.0667V12.0333Z" fill="#212121"/>
</g>
<defs>
<clipPath id="clip0_38_3055">
<rect width="30" height="20" fill="white"/>
</clipPath>
</defs>
</svg>
